<?xml version="1.0" encoding="utf-8"?>

<svg version="1.1" id="Layer_1" xmlns="http://www.w3.org/2000/svg" xmlns:xlink="http://www.w3.org/1999/xlink" x="0px" y="0px"
	 viewBox="0 0 128 128" style="enable-background:new 0 0 128 128;" xml:space="preserve">
<style type="text/css">
	.st0{fill:#2787F5;}
	.st1{fill-rule:evenodd;clip-rule:evenodd;fill:#FFFFFF;}
</style>
<path class="st0" d="M0,61.3C0,32.4,0,18,9,9s23.4-9,52.4-9h5.3C95.6,0,110,0,119,9c9,9,9,23.4,9,52.4v5.3c0,28.9,0,43.4-9,52.4
	c-9,9-23.4,9-52.4,9h-5.3c-28.9,0-43.4,0-52.4-9c-9-9-9-23.4-9-52.4L0,61.3z"/>
<path class="st1" d="M34.7,40h-9.3c-2.7,0-3.2,1.3-3.2,2.6c0,2.5,3.2,14.7,14.7,30.9c7.7,11.1,18.6,17.1,28.5,17.1
	c5.9,0,6.7-1.3,6.7-3.6v-8.4c0-2.7,0.6-3.2,2.4-3.2c1.4,0,3.8,0.7,9.3,6c6.3,6.3,7.4,9.2,10.9,9.2h9.3c2.7,0,4-1.3,3.2-4
	c-0.8-2.6-3.9-6.4-7.9-10.9c-2.2-2.6-5.4-5.3-6.4-6.7c-1.4-1.8-1-2.6,0-4.2c0,0,11.4-16,12.6-21.5c0.6-2,0-3.4-2.8-3.4h-9.3
	c-2.4,0-3.5,1.3-4.1,2.6c0,0-4.7,11.6-11.5,19.1c-2.2,2.2-3.2,2.9-4.4,2.9c-0.6,0-1.5-0.7-1.5-2.7V43.4c0-2.4-0.7-3.4-2.7-3.4H54.7
	c-1.5,0-2.4,1.1-2.4,2.1c0,2.2,3.4,2.8,3.7,9.1V65c0,3-0.5,3.6-1.7,3.6c-3.2,0-10.9-11.6-15.4-24.9C38,41,37.1,40,34.7,40z"/>
</svg>
